<svg xmlns="http://www.w3.org/2000/svg" width="407.489" height="128.741" viewBox="0 0 107.815 34.063"><g fill="#e5ac2e"><g font-family="Overseer" stroke-width="1.591"><g aria-label="Fallout" style="line-height:1.25;-inkscape-font-specification:Overseer" font-size="36.748" font-weight="400"><path d="M34.75 15.628v10.318h-4.935V.825h11.663v3.589h-6.729v7.626h6.729v3.588zM46.484 15.628h3.14l.018-3.14q0-1.794-1.346-1.794-1.363 0-1.363 1.794l-.018 1.794h-4.917v-3.588q0-3.589 5.312-3.589h1.812q5.455 0 5.473 3.589l-.036 15.252h-4.486v-.897q-.43 1.345-3.122 1.345-5.401 0-5.401-3.588v-4.038q0-3.14 4.934-3.14zm1.346 3.14q-1.346 0-1.346 1.795v.43q0 1.813 1.346 1.813h.448q1.274 0 1.346-1.813v-2.225zM56.353.825h4.934v25.12h-4.934zM63.082.825h4.934v25.12h-4.934zM79.787 7.123q-.413-.09-.879-.126l2.297-3.211zm-7.016 19.253q.43.09.933.144l-2.278 3.194zm6.837-19.074q3.212.646 3.212 3.392v12.112q0 3.588-5.365 3.588h-2.243q-.718 0-1.328-.053l7.59-10.713H76.09zM72.95 26.197q-3.14-.664-3.14-3.391V10.694q0-3.589 5.347-3.589h2.207q.736 0 1.364.072L70.708 18.32h5.383zM92.689 25.946v-.897q-.449 1.345-3.14 1.345-4.935 0-4.935-3.588V7.554h4.934V21.01q0 1.795 1.274 1.795h.449q1.4 0 1.418-1.795V7.554h4.934v18.392zM100.189 7.554V2.619l4.934-1.794v6.729h2.692v2.243h-2.692V21.01q0 1.795 1.346 1.795h1.346v3.588h-2.692q-4.934 0-4.934-3.588V9.796h-1.794V7.555z" style="-inkscape-font-specification:Overseer"/></g><g aria-label="BRAND NEW ROAD" style="line-height:1.25;-inkscape-font-specification:Overseer" font-size="7.153" letter-spacing=".766"><path d="M33.83 33.13h-1.99v-4.77h1.846q.708 0 1.044.372.294.322.294.894 0 .315-.136.586-.143.265-.386.372.4.043.65.286.322.308.322.873 0 .587-.35.937-.436.45-1.295.45zm-.752-3.819v.93h.23q.328 0 .471-.15.115-.115.115-.315 0-.193-.115-.322-.143-.143-.472-.143zm0 1.853v1.001h.28q.6 0 .765-.193.1-.115.1-.308 0-.221-.122-.343-.157-.157-.765-.157zM37.027 28.36h1.931q.758 0 1.166.422.408.415.408 1.073 0 .63-.38.994-.264.25-.658.329l1.495 1.953h-1.537L38.264 31.3v1.83h-1.237zm1.237.958v1.18h.236q.4 0 .601-.193.157-.157.157-.4 0-.25-.164-.4-.186-.187-.594-.187zM45.481 33.13l-.293-.8h-1.73l-.323.8h-1.309l1.832-4.77h1.351l1.796 4.77zm-1.68-1.745h1.058l-.536-1.545zM49.358 33.13h-1.237v-4.77h1.237l2.282 2.918V28.36h1.238v4.77H51.64l-2.282-2.918zM56.376 33.13h-1.731v-4.77h1.623q1.216 0 1.896.658.665.636.665 1.738 0 1.03-.622 1.652-.315.315-.787.522-.472.2-1.044.2zm-.494-3.719v2.668h.25q.694 0 1.045-.343.364-.35.364-.98 0-.694-.372-1.044-.321-.3-.987-.3zM64.05 33.13h-1.237v-4.77h1.238l2.282 2.918V28.36h1.237v4.77h-1.237l-2.282-2.918zM72.048 28.36v1.051h-1.474v.794h1.395v1.052h-1.395v.822h1.474v1.052h-2.711V28.36zM73.1 28.36h1.294l.83 3.083 1.008-3.083h.987l.937 3.083.902-3.083h1.294l-1.523 4.77h-1.266l-.866-2.76-.915 2.76h-1.26zM84.05 28.36h1.932q.758 0 1.166.422.408.415.408 1.073 0 .63-.38.994-.264.25-.658.329l1.495 1.953h-1.537L85.288 31.3v1.83h-1.237zm1.238.958v1.18h.236q.4 0 .601-.193.157-.157.157-.4 0-.25-.164-.4-.186-.187-.594-.187zM94.35 30.749q0 1.058-.75 1.78-.744.709-1.881.709-1.138 0-1.881-.708-.751-.723-.751-1.781 0-.494.185-.966.194-.472.566-.822.743-.709 1.88-.709 1.138 0 1.882.709.372.35.558.822.193.472.193.966zm-2.631-1.295q-.587 0-.966.38-.379.371-.379.936 0 .522.38.887.392.38.965.38.586 0 .958-.373.386-.386.386-.915 0-.544-.386-.916-.4-.379-.958-.379zM98.965 33.13l-.294-.8h-1.73l-.322.8h-1.31l1.832-4.77h1.352l1.795 4.77zm-1.681-1.745h1.058l-.536-1.545zM103.335 33.13h-1.73v-4.77h1.623q1.216 0 1.895.658.666.636.666 1.738 0 1.03-.623 1.652-.314.315-.787.522-.472.2-1.044.2zm-.493-3.719v2.668h.25q.694 0 1.044-.343.365-.35.365-.98 0-.694-.372-1.044-.322-.3-.987-.3z"/></g></g><path d="M23.05 0v.873C17.376.851 11.928 3.071 10.823 9.607c-.703 5.151-2 8.599-2.456 14.453h.038c2.76 0 4.998 2.179 4.998 4.866a4.77 4.77 0 01-.71 2.499c2.056.439 4.512.652 6.763.881.996-4.415 1.316-8.317 3.108-12.236-1.605 3.9-1.847 7.966-2.757 12.496l1.497 1.497h5.882V0zm-6.378 10.127l9.206 1.84v2.763l-6.444.92c-4.787-1.657-4.235-.552-2.762-5.523z"/><path d="M8.387 19.333l.552-2.394c-6.822 1.235-7.92 2.335-8.838 6.997-1.045 5.989 6.196 9.273 12.632 5.812.336-1.562-.13-3.932-3.322-4.982-2.393 1.542-5.833 1.939-6.18-.83-.27-3.733 3.982-4.121 5.156-4.603z"/></g></svg>