<svg xmlns="http://www.w3.org/2000/svg" width="186.1" height="166.339" viewBox="0 0 49.239 44.011"><g fill="#e5ac2e"><path d="M29.782 0v1.129c-7.331-.03-14.37 2.84-15.799 11.284-.907 6.655-2.583 11.11-3.173 18.674h.05c3.566 0 6.457 2.815 6.457 6.287a6.163 6.163 0 01-.916 3.228c2.655.567 5.828.843 8.737 1.139 1.287-5.704 1.7-10.746 4.016-15.81-2.074 5.039-2.386 10.293-3.563 16.146l1.934 1.934h7.6V0zm-8.24 13.084l11.894 2.379v3.568l-8.326 1.19c-6.186-2.141-5.472-.714-3.569-7.137z"/><path d="M10.836 24.979l.714-3.093C2.735 23.482 1.318 24.902.13 30.926c-1.35 7.738 8.006 11.981 16.321 7.51.434-2.019-.168-5.08-4.291-6.437-3.092 1.993-7.537 2.505-7.985-1.073-.35-4.823 5.145-5.325 6.661-5.947z"/><text style="line-height:0;-inkscape-font-specification:'Futura PT'" x="110.939" y="78.634" font-weight="400" font-size="37.686" font-family="Futura PT" stroke-width=".589" transform="translate(-74.4 -82.01)"><tspan x="110.939" y="94.525" style="line-height:.9;-inkscape-font-specification:'sans-serif Bold'" font-weight="700" font-size="16.933" font-family="sans-serif">B</tspan><tspan x="110.939" y="109.765" style="line-height:.9;-inkscape-font-specification:'sans-serif Bold'" font-weight="700" font-size="16.933" font-family="sans-serif">N</tspan><tspan x="110.939" y="125.005" style="line-height:.9;-inkscape-font-specification:'sans-serif Bold'" font-weight="700" font-size="16.933" font-family="sans-serif">R</tspan></text></g></svg>