<svg width="951" height="951" xmlns="http://www.w3.org/2000/svg"><g fill-rule="nonzero" fill="none"><path d="M677.49 2.29c.75-.53 1.51-1.06 2.28-1.6 6.21.14 12.42.11 18.63 0 .82.49 1.65.98 2.48 1.48 2.42 0 4.98-.33 7.2.89 1.93.18 3.93.22 5.73 1.04 1.39.25 2.82.46 4.17.97 2.03.53 4.03 1.18 6.05 1.75 5.66 1.91 11.3 3.95 16.76 6.38 8.02 3.34 15.82 7.23 23.28 11.7 9.21 4.91 18.02 10.59 26.81 16.23.89.84 1.9 1.51 3.05 2 2.53 2.15 5.41 3.83 8.18 5.66 4.46 3.63 9.42 6.63 13.84 10.33 12.38 9.15 24.04 19.19 35.8 29.11 2.72 2.59 5.01 5.7 8.35 7.59 7.45 6.6 14.28 13.84 21.38 20.81 3.77 3.67 6.49 8.23 9.47 12.54 4.78 6.92 7.5 14.99 10.16 22.91.89 5.35 2.88 10.55 2.67 16.04 1.45 4.86.81 9.95.93 14.94-.01 10.67 0 21.35 0 32.03.05 2.37-1.23 4.55-1 6.95-.24 2.67.8 5.77-1.09 8.05-.38 2.99.74 6.39-1.21 8.99.03 1.78.1 3.56.19 5.34-.34.34-1.03 1.01-1.37 1.35.01 1.36.02 2.72.01 4.08-.96 1.61-1.06 3.47-1.16 5.3-1.52 5.22-2.34 10.63-4.19 15.77-.31 1.41-.6 2.84-1.08 4.21-2.08 5.99-3.45 12.21-5.8 18.1-1.12 3.98-2.81 7.77-3.93 11.74-1.34 3.15-3.38 6.58-2.06 10.08 1.65 4.59 3.72 9.05 4.91 13.8 1.67 3.57 2.77 7.36 4.05 11.08.29 1.31.62 2.64.99 3.95.35 1.01.73 2.01 1.12 3.02.35 1.37.78 2.74 1.29 4.09.26 2.06.9 4.06 1.65 6 .5 1.36.7 2.79.91 4.23.28.63.85 1.87 1.13 2.5-.39 1.5.32 2.87.93 4.18.88 3.04.69 6.46 2.39 9.23.03 1.28.05 2.57.12 3.87 1.46 3.21 2.12 6.9 2.21 10.44.26.39.78 1.18 1.03 1.57-.02 1.59-.03 3.19.01 4.8 2.41 2.59-.01 6.42 2.46 9.06-1.3 3.91 1.46 7.3 1.1 11.17-.14 1.98.07 3.97 1.03 5.75.25 3.42-.84 7.23 1.1 10.31.41 5.29-.7 10.75 1.14 15.85.11 15.03-.08 30.08.09 45.12.14 1.15-.56 2.13-1.13 3.06-.1 4.6.1 9.21-.08 13.81-2.24 3.24-.41 7.34-1.44 10.9-1.03 2.88-.66 5.98-.78 8.98-2.03 2.3-.54 5.4-1.56 8.03-1.11 2.66-.38 5.75-1.84 8.27-.4 4.03-.65 8.31-2.16 12.04-.11 1.45-.17 2.91-.2 4.38l-1.1-.01c-.01 1.79.01 3.6.1 5.4.94.92 1.81 1.96 2.55 3.07 5.71 9.01 11.45 18 16.9 27.17 2.1 4.39 4.99 8.37 6.94 12.85 2.7 5.14 5.08 10.45 7.29 15.81.3.5.89 1.5 1.19 2 2.88 7.05 5.14 14.35 8.18 21.34v3.27l1.14.03c.01.64.02 1.92.02 2.56.99 1.16 1.12 2.67 1.39 4.12.55 2.32 1 4.71 2.07 6.89-.18 3.05.55 6.01 1.1 8.98-.01 6.99.02 13.98-.06 20.96-1.65 1.77-.79 4.33-.82 6.48-.59.77-1.17 1.54-1.74 2.33.13.57.38 1.7.51 2.27-1.46 4.25-2.52 8.63-3.78 12.95-2.24 5.27-3.5 10.99-6.32 16.03-.79 2.7-1.95 5.26-3.33 7.71-7.66 16.63-17.59 32.04-27.95 47.08-1.61 2.99-4.06 5.38-5.94 8.18-4.34 6.7-9.58 12.78-14.23 19.26-1.06 1.7-2.34 3.25-3.79 4.62-3.07 4.22-6.39 8.3-9.95 12.12-1.73 2.22-3.36 4.55-5.4 6.52-3.38 2.99-5.48 7.11-8.94 10.05-4.3 3.7-7.37 8.52-11.49 12.42-7.02 6.94-13.49 14.61-21.94 19.91-5.37 4.14-11.76 6.52-17.81 9.45-.64-.01-1.91-.04-2.54-.05l-.12 1.33c-.65-.01-1.96-.02-2.61-.03-1.09.92-2.56.94-3.86 1.28-1.38.73-2.95.86-4.46 1.06-2.59 1.06-5.4.89-8.11.73-.84.51-1.67 1.04-2.49 1.58-5.27.36-10.94-1.2-15.93.91-7.72.1-15.44.1-23.15.03-4.74-2.05-10.1-.65-15.1-.94-.86-.56-1.72-1.1-2.56-1.63-2.83.1-5.73.47-8.48-.32-2.93-1.06-6.25.13-8.99-1.52-1.97-.3-4.26.17-5.85-1.29-1.64-.02-3.27.01-4.89.01-3.3-2.31-8.01-1.01-11.26-3.51-1.67-.11-3.32-.35-4.88-.9-3.66-.77-7.22-1.9-10.86-2.71-1-.59-2.11-1-3.18-1.36-1.08-.31-2.16-.57-3.24-.78-9.17-3.55-18.77-5.99-27.75-10.04-3.78 1.3-7.36 3.17-11.2 4.33-2.59.7-4.96 2.52-7.73 2.34-2.28 2-5.67 1.7-8.13 3.44-.52.04-1.55.12-2.06.15-8.24 3.41-17.17 5.08-25.73 7.6-1.43.26-3 .23-4.15 1.24-1.81.02-3.62.2-5.1 1.33-1.47-.08-2.93-.17-4.38-.25l.06 1.29c-1.26.01-2.51.04-3.75.09-1.95.91-4.09 1.1-6.21 1.03-.76.51-1.51 1.04-2.25 1.58l-3.47-.68c-.81.52-1.61 1.06-2.41 1.61-7.18-.29-14.09 2.76-21.35 2.2-2.47 2.34-6.25.33-9.24 1.2-4.41 1.84-9.31.59-13.94.88-1.93 1.66-4.54 1.19-6.88 1.26-16.36-.06-32.72 0-49.07-.02-2.74.04-5.17-1.68-7.95-1.2-3.27-.37-7.05 1.1-9.85-1.15-3.76.2-7.55.42-11.1-1-4.44.4-8.59-1.37-13.01-1.22-1.88-1.48-4.32-.98-6.5-.94-.84-.51-1.68-1-2.51-1.48-2.34.59-4.71.35-6.73-1-1.85-.05-3.71-.13-5.41-.91-2.08-.11-4.14-.43-5.97-1.45-3.28 2.19-6.35 4.68-9.67 6.82-9.49 6.37-19.21 12.47-29.26 17.89-9.88 5.84-20.44 10.36-30.96 14.91-7.2 3.09-14.69 5.45-22.12 7.92-3.99.98-7.86 2.82-12.04 2.63-2.28 1.74-5.23.9-7.86 1.09-2.3 1.79-5.39.79-8.06 1.03-3.97-.37-8.22.85-11.95-.9-2.73-.18-5.61.32-8.14-.95-2.97-.3-5.83-1.12-8.73-1.72-5.23-2.01-10.87-2.71-15.9-5.26-1.07-.25-2.1-.58-3.1-1-13.46-5.28-26.19-12.17-38.64-19.49-3.02-2.02-6-4.12-9.27-5.73-3.07-2.41-6.76-3.98-9.49-6.8-.51-.12-1.54-.35-2.05-.47-.35-.39-1.06-1.18-1.42-1.57-4.37-2.68-8.71-5.57-12.44-9.08-.46-.12-1.37-.36-1.83-.49-2.06-2.53-5.46-3.53-7.09-6.5l-1.96-.52c-.71-.71-1.43-1.41-2.15-2.09-6.33-4.96-13.03-9.54-18.74-15.25-3.69-1.49-5.64-5.25-8.89-7.36-4.76-3.2-7.96-8.14-12.68-11.37-3.03-2.51-5.65-5.45-8.61-8.03-7.32-7.78-15.73-14.72-20.98-24.2-1.86-3.76-4.41-7.18-5.79-11.16-1.69-4.07-2.93-8.29-4.18-12.5-.12-1.49-.45-2.91-1.19-4.19.04-3.8-1.67-7.36-1.06-11.19.49-3.12-1.42-5.86-1.31-8.92.08-12.37.05-24.74.02-37.1-.27-2.76 1.7-5.14 1.26-7.91-.58-4.47 1.37-8.67 1.06-13.12-.05-1.7.91-3.18 1.39-4.75-.63-2.11-.13-4.15.96-5.98 0-1.86.04-3.74 1.07-5.35.06-1.33.11-2.65.13-3.95.3-.39.9-1.16 1.2-1.55-.08-.87-.23-2.6-.31-3.46.32-.38.95-1.12 1.26-1.5.02-1.06.06-2.12.1-3.16a7.255 7.255 0 001.2-3.71c.22-.36.66-1.08.87-1.44-.52-3.71 2.53-6.6 2.46-10.2 1.01-3.13 2.09-6.23 3.04-9.37.32-1.2.77-2.34 1.35-3.41.02-.65.06-1.93.07-2.57l1.06-.03.16-2.34c2.19-4.56 3.53-9.45 5.36-14.14.89-2.32 2.17-4.54 2.61-6.99-.56-1.66-1.38-3.22-2.08-4.81-5.12-14.18-9.86-28.48-13.71-43.06-.7-2.76-1-5.71-2.43-8.21-.05-1.27-.06-2.53-.09-3.78-1.16-1.19-1.11-2.85-1.3-4.36-.7-1.81-.89-3.75-1.05-5.66-1.55-2.49-.79-5.55-2.01-8.14-.5-4.04-1.41-8.01-2.01-12.03-.77-2.57.38-5.6-1.51-7.78-.07-2.12-.07-4.24-.09-6.35-1.94-2.98-.84-6.69-1-10.01-2.04-2.5-.97-5.87-1.18-8.8.36-3.42-1.2-6.62-1.04-10.01.05-17.67.03-35.35.01-53.02-.11-1.43.27-2.81.94-4.05.64-4.33-1.18-9.26 1.15-13.18.08-2.89 0-5.78.14-8.67 1.64-2.08.76-4.79 1.07-7.2 1.56-4.77 1.61-9.88 2.33-14.83 1.01-1.9 1.03-4.05 1.03-6.14.42-.9.85-1.79 1.27-2.68-.22-1.82-.16-3.63.01-5.44-11.14-15.91-20.92-32.76-29.55-50.14-.14-.42-.42-1.24-.57-1.66-1.99-3.84-3.66-7.83-5.22-11.86-2.05-5.34-4.51-10.52-5.97-16.06-1.71-5.24-3.97-10.46-4.44-15.98-1.39-1.76-.97-3.99-1.04-6.06-.75-1.23-1.25-2.59-1.1-4.04-.01-7.02.03-14.03-.02-21.04-.12-1.67.49-3.22.97-4.76.29-2.1.03-4.31 1.13-6.22 1.23-8.17 4.45-15.95 7-23.8 3.1-6.55 5.43-13.44 8.97-19.78 3.14-5.95 6.23-11.97 9.95-17.59 1.27-2.72 3.25-5.04 4.45-7.8 1.52-2.25 3-4.51 4.51-6.75 7.02-11.12 14.9-21.66 22.8-32.15 9.84-13.4 21.04-25.66 31.74-38.33 2.79-3.15 6.15-5.75 8.85-8.97 9.01-11.07 19.63-21.02 32.29-27.8 4.39-2.66 9.28-4.47 14.12-6.19 1.32-.27 2.83-.18 3.88-1.2 3.37-.74 6.79-1.24 10.11-2.18 3.33-.42 6.8.27 9.96-1.19 15.03-.13 30.08.04 45.12-.07 1.12 0 2.22.17 3.29.51 3.84 1.33 8.08-.31 11.81 1.59 6.55-.21 12.79 2.16 19.24 2.29.37.3 1.09.89 1.46 1.19l3.25-.16c1.51.93 3.23 1.27 4.97 1.49 1.52.49 3.09.75 4.68.87.52.32 1.57.95 2.09 1.27 1.47-.04 2.94.17 4.35.63 1.24.44 2.51.86 3.73 1.38 2.13.38 4.22.95 6.32 1.51 2.17.95 4.45 1.64 6.73 2.27 2.28.97 4.64 1.73 7.03 2.35.37.21 1.1.61 1.47.81 2.33.27 4.63 1.06 6.49 2.54 6.51-2.82 13.25-5.11 19.67-8.12.66-.02 1.97-.05 2.62-.07l.16-.82c4.52-1.41 8.93-3.16 13.43-4.65 1.03-.36 2.06-.73 3.1-1.11 1.27-.31 2.54-.66 3.77-1.17 2.03-.65 4.08-1.28 6.21-1.6 3.59-1.5 7.48-1.98 11.16-3.22 2.24-.83 4.58-1.3 6.88-1.94 4.34-.75 8.52-2.25 12.9-2.72 1.49-1.12 3.41-.89 5.17-1.11 1.81-1.04 3.93-.83 5.94-.93 1.81-1.36 4.08-1.05 6.21-1.03.83-.53 1.66-1.06 2.5-1.59.86.18 2.57.52 3.43.69 1.18-.54 2.38-1.09 3.57-1.65 1.75.04 3.5.08 5.26.1l1.53-1.17c2.64.07 5.4.52 7.94-.44 3.33-1.23 6.95-.45 10.41-.65.31-.25.94-.74 1.25-.99 4.36-.2 8.73.06 13.1-.12 1.16-.65 2.38-1.32 3.78-1.15 14.66 0 29.31.03 43.97-.02 2.06-.18 3.97.68 5.93 1.14 3.98.26 7.98-.05 11.97.13 3.08 1.82 6.8.79 10.18.99 2.64 1.97 6.05 1.08 9.1 1.24 2.6 1.6 5.74.63 8.54 1.52 2.74.76 5.72.56 8.32 1.85 2.05.03 4.21-.12 5.99 1.12 2.05.1 4.2-.01 6.08.99 1.42.08 2.87.13 4.31.19l-.04 1.12c2.95.05 5.9.2 8.86.12.36-.52 1.09-1.56 1.46-2.08 1.26-.27 2.38-.86 3.24-1.84 3.74-2.17 7.09-4.95 11.03-6.76 3.56-2.55 7.31-4.84 11.26-6.74 4.7-3.11 9.82-5.55 14.86-8.05 5.07-2.85 10.6-4.72 15.78-7.31 1.45-.55 2.88-1.14 4.34-1.68 4.49-2.24 9.43-3.33 14.04-5.25 2.25-.71 4.61-1.16 6.71-2.29l2.11-.24c1.16-1.02 2.73-.95 4.17-1.2 1.44-.86 3.1-1.02 4.75-1.18 2.38-1.06 4.99-.89 7.53-.73z" fill="#242021"/><path d="M643.89 100.92c13.53-7.79 28.02-13.92 43.06-18.12 3.71-.62 7.43.61 11.02 1.5 18.66 5.9 35.26 16.63 51.43 27.39 22.99 15.95 44.88 33.59 64.85 53.22 2.37 2.12 4.68 4.34 6.62 6.88-2.34-.23-4.66-.52-6.99-.79-17.28-1.88-34.31 3.4-50.05 10.04-17.72 8.01-34.07 18.82-49.09 31.13-2.32 1.84-4.54 3.81-6.72 5.81-3.81 2.09-6.27 5.8-9.46 8.65-3.97 3.64-7.48 7.81-11.95 10.86-5.41 6.57-11.38 12.71-17.66 18.43-5.64 7.91-12.09 15.21-18.09 22.84-5.71 7.68-11.08 15.6-16.77 23.3-1.34 1.83-2.38 3.85-3.38 5.88-6.61 8.19-11.42 17.7-16.46 26.91-1.66 4.4-5.09 8.23-5 13.16 5.8 2.47 11.21 5.76 16.79 8.69 9.55 4.87 18.99 9.96 28.3 15.3-5.75 3.36-12.32 4.83-18.23 7.85-7.33 2.14-14.07 5.81-21.38 7.97-9.14 4.08-18.7 7.18-27.89 11.17-12.21 4.31-24.04 9.58-36.18 14.07-16.29 6.26-32.34 13.19-48.95 18.57-2.95-3.07-2.64-7.83-3.64-11.73-3-8.47-5.07-17.24-7.37-25.91-1-3.49-2.08-6.96-2.61-10.56-.5-.75-1-1.49-1.49-2.23-.7-7.01-3.6-13.51-4.9-20.4-.9-4.77-3.06-9.21-3.55-14.07-.28-.45-.86-1.36-1.15-1.81-.69-6.01-2.94-11.66-4.4-17.49-3.59-14.16-7.36-28.28-11.33-42.35-1.24-6.06-3.41-11.91-4.19-18.06 4.28.57 7.63 3.32 11.28 5.36 6.38 2.67 12.13 6.57 18.4 9.47 3.65 1.61 6.8 4.34 10.81 5.11 12.25-28 25.67-55.57 41.76-81.6.73-1.26 1.29-2.61 1.9-3.94 4.32-5.18 7.44-11.2 11.38-16.66 5.29-7.39 10.43-14.92 16.45-21.76 4.39-5.01 8.3-10.44 13.01-15.16 3.13-3.16 6.3-6.29 9.43-9.46 8.7-8.12 18.03-15.57 27.99-22.09 8.19-5.03 15.95-10.76 24.4-15.37z" fill="#FEFEFE"/><path d="M393.04 128.54c25.48-6.35 51.73-8.97 77.92-9.84 40.85-.07 82.02 5.78 120.54 19.68-3.13 3.17-6.3 6.3-9.43 9.46-4.71 4.72-8.62 10.15-13.01 15.16-6.02 6.84-11.16 14.37-16.45 21.76-3.94 5.46-7.06 11.48-11.38 16.66-.61 1.33-1.17 2.68-1.9 3.94-16.09 26.03-29.51 53.6-41.76 81.6-4.01-.77-7.16-3.5-10.81-5.11-6.27-2.9-12.02-6.8-18.4-9.47-3.65-2.04-7-4.79-11.28-5.36.78 6.15 2.95 12 4.19 18.06 3.97 14.07 7.74 28.19 11.33 42.35 1.46 5.83 3.71 11.48 4.4 17.49.29.45.87 1.36 1.15 1.81.49 4.86 2.65 9.3 3.55 14.07 1.3 6.89 4.2 13.39 4.9 20.4.49.74.99 1.48 1.49 2.23.53 3.6 1.61 7.07 2.61 10.56 2.3 8.67 4.37 17.44 7.37 25.91 1 3.9.69 8.66 3.64 11.73 16.61-5.38 32.66-12.31 48.95-18.57 12.14-4.49 23.97-9.76 36.18-14.07 9.19-3.99 18.75-7.09 27.89-11.17 7.31-2.16 14.05-5.83 21.38-7.97 5.91-3.02 12.48-4.49 18.23-7.85a654.009 654.009 0 00-28.3-15.3c-5.58-2.93-10.99-6.22-16.79-8.69-.09-4.93 3.34-8.76 5-13.16 5.04-9.21 9.85-18.72 16.46-26.91 1-2.03 2.04-4.05 3.38-5.88 5.69-7.7 11.06-15.62 16.77-23.3 6-7.63 12.45-14.93 18.09-22.84 6.28-5.72 12.25-11.86 17.66-18.43 4.47-3.05 7.98-7.22 11.95-10.86 3.19-2.85 5.65-6.56 9.46-8.65 2.18-2 4.4-3.97 6.72-5.81 12.14 8.82 21.2 20.95 31.29 31.87 3.84 3.89 6.8 8.51 10.45 12.56 7.46 10.34 15.08 20.61 21.37 31.73 3.97 5.52 7 11.62 10.34 17.53 2.58 4.71 4.02 10 7.14 14.43 15.32 31.05 25.31 64.69 30.67 98.86 3.94 25.06 4.37 50.52 3.35 75.82-1.87 31.36-7.8 62.56-18.14 92.23-27.75-28.17-61.64-49.4-96.38-67.83-8.32-4.83-17.22-8.52-25.78-12.88-7.33-3.78-14.84-7.22-22.49-10.3-1.61-.48-1.95-2.12-2.29-3.52.97-.76 1.95-1.51 2.93-2.26 2.81-8.23 7.97-15.41 11.6-23.3 1.75-4.16 4.67-7.71 6.14-12.01-2.67-.05-5.35.15-7.81 1.21-42.79 11.34-85.56 22.92-128.27 34.55-9.74 1.89-19.05 5.56-28.8 7.54.72 3.38 1.72 6.69 2.79 9.99 3.76 8.6 6.49 17.61 10.33 26.19 3.36 8.73 6.45 17.59 10.21 26.17 11.57 30.62 24.01 60.89 35.42 91.56 3.71-4.15 5.54-9.47 8.38-14.18 5.59-10.3 11.06-20.66 16.64-30.98 1.96.22 3.99.41 5.74 1.44 5.12 2.82 10.62 4.94 15.48 8.23 1.63 1.14 3.55 1.72 5.46 2.26 6 5.12 13.31 8.37 19.49 13.27 13.4 8.65 26.01 18.47 38.16 28.8 5.44 3.82 9.68 9.1 15.29 12.68 2.25 2.99 4.84 5.68 7.55 8.26 3.57 3.38 6.7 7.26 10.81 10.04 4.8 6.51 10.65 12.17 15.79 18.42-2.17 4.95-6.68 8.03-10.26 11.85-10.3 11.76-22.98 21-34.83 31.08-4.99 4.54-11 7.7-16.35 11.76-12.78 9.57-26.7 17.45-41.04 24.44-42.29 21.5-89.02 34.18-136.37 37.1-12.18 1.36-24.49.48-36.72.69-30.27-1.54-60.52-6.21-89.53-15.2-3.6-1.07-7.3-1.97-10.63-3.78 10.81-11.28 21.05-23.16 29.83-36.1 1.07-1.58 2.25-3.09 3.43-4.58.25-.87.5-1.73.76-2.57 4.74-3.96 7.14-9.75 10.7-14.64 3.41-4.81 5.41-10.44 8.8-15.27 5.45-9.07 10.03-18.65 15.57-27.66 1.5-5.11 4.66-9.5 6.44-14.51 3.67-6.57 6.75-13.43 9.65-20.37.51-.17 1.53-.51 2.03-.68.25-2.32.52-4.63.81-6.93 4.93.38 9.02 3.28 13.33 5.4 9.31 4.79 18.21 10.43 27.76 14.73-.11-7.75-3.28-14.92-5.01-22.35-5.32-19.42-10.14-38.96-15.62-58.33-.52-1.96-1.31-3.83-2.16-5.66-1.91-11.43-6.01-22.37-8.34-33.72-2.32-5.22-2.78-10.98-4.41-16.4-2.91-9.34-5.25-18.84-7.4-28.37-5.18-.77-9.3 2.87-14 4.28-8.94 2.98-17.51 6.95-26.38 10.12-7.52 3.18-15.32 5.63-22.8 8.89-2.22.98-4.51 1.78-6.83 2.47-8.9 3.99-18.24 6.85-27.17 10.76-8.75 3.21-17.52 6.39-26.04 10.19-7.43 2.84-15.02 5.36-22.19 8.83-2.03.58-4.07 1.15-6.11 1.71-.11.88-.31 2.64-.42 3.51 14.37 7.39 28.58 15.09 42.75 22.86-.25 1.83-.32 3.77-1.26 5.44-5.75 10.84-11.01 22.01-18.07 32.09-11.03 16.7-22.8 32.93-35.7 48.23-5.44 6.44-11.52 12.32-16.77 18.91-6.58 5.46-12.8 11.49-18.23 18.11-4.05 2.68-7.49 6.13-11.17 9.29-7.07-6.54-13.83-13.41-20.63-20.22-12.33-13.79-23.68-28.43-34.49-43.43-3.01-5.54-7.41-10.18-10.22-15.84-3.67-7.71-8.57-14.75-12.6-22.27-1.83-5.93-4.52-11.54-7.65-16.89-3.67-7.48-6.37-15.39-9.5-23.1 1.86-.86 1.14-3.05.48-4.38-.57 1.25-.92 2.58-1.04 3.98-.68-3.72-1.94-7.28-3.26-10.8-6.36-19.96-11.38-40.41-14-61.21-1.11-8.32-2.59-16.62-2.39-25.04-1.15-15.63-1.28-31.35-.03-46.97.37-3.73-.46-7.9.95-11.26l.51.18c.12.2.35.61.46.81-.18-1.57-.44-3.14-.36-4.71 1.63-14.36 3.88-28.66 7.29-42.71 1.76-8.02 4.41-15.8 6.36-23.77l2.15-.8c8.46 8.45 17.3 16.52 26.85 23.73 7.37 5.18 14.45 10.76 21.84 15.9 26.13 17.04 53.75 31.73 82.07 44.75 4.92 2.68 10.68 3.76 15.03 7.46.16.97.01 1.9-.45 2.78-4.88 8.82-9.57 17.74-14.31 26.65-1.88 3.13-3.57 6.37-4.75 9.84 6.42.39 12.3-2.42 18.49-3.53 5.62-1.09 10.8-3.75 16.52-4.41 29.91-8.46 59.98-16.26 89.99-24.3 7.23-1.42 14.09-4.32 21.4-5.36.66-.51 1.33-1.01 2-1.5 5.73-.1 10.81-3.18 16.49-3.61-3.31-11.35-8.43-22.04-12.34-33.18-8.28-20.9-16.3-41.9-24.35-62.89-2.57-5.28-3.99-11.02-6.74-16.21-4.23-12.73-9.61-25.04-14.32-37.6-.53-1.3-1.13-3.83-3.1-2.65-1.6 2.1-2.62 4.54-3.78 6.89-2.56 5.41-5.99 10.4-8 16.07-4.47 6.28-7.61 13.37-11.22 20.15-5.32.11-9.92-2.73-14.43-5.16-21.24-10.54-40.24-24.88-59.14-39.05-7.56-6.32-15.41-12.29-22.64-18.99-14.51-14.02-29.08-28.08-41.6-43.93 5.56-7.15 12.37-13.16 18.54-19.77 6.58-6.13 12.93-12.57 20.14-18 8.67-6.26 16.16-14.12 25.43-19.55 11.28-7.27 22.02-15.6 34.44-20.93 13.46-8.09 28.14-13.89 42.67-19.79 13.97-5.05 28.16-9.59 42.63-13.01z" fill="#F9A332"/><path d="M169.81 135.46c7.15-2.37 14.72-2.11 22.14-2.07 8.03.21 16.16-.68 24.07 1.12 15.02 1.17 29.84 4.56 44.06 9.49 10.94 3.54 21.91 7.05 32.45 11.7 4.94 2.17 9.84 4.68 15.21 5.64-12.42 5.33-23.16 13.66-34.44 20.93-9.27 5.43-16.76 13.29-25.43 19.55-7.21 5.43-13.56 11.87-20.14 18-6.17 6.61-12.98 12.62-18.54 19.77-18.59-23.55-34.92-50.42-39.14-80.64-1.18-7.61 0-15.3-.15-22.9l-.09-.59z" fill="#9D6B36"/><path d="M98.01 226.99c19.93-33.25 44.69-63.4 71.89-90.94.15 7.6-1.03 15.29.15 22.9 4.22 30.22 20.55 57.09 39.14 80.64 12.52 15.85 27.09 29.91 41.6 43.93 7.23 6.7 15.08 12.67 22.64 18.99 18.9 14.17 37.9 28.51 59.14 39.05 4.51 2.43 9.11 5.27 14.43 5.16 3.61-6.78 6.75-13.87 11.22-20.15 2.01-5.67 5.44-10.66 8-16.07 1.16-2.35 2.18-4.79 3.78-6.89 1.97-1.18 2.57 1.35 3.1 2.65 4.71 12.56 10.09 24.87 14.32 37.6 2.75 5.19 4.17 10.93 6.74 16.21 8.05 20.99 16.07 41.99 24.35 62.89 3.91 11.14 9.03 21.83 12.34 33.18-5.68.43-10.76 3.51-16.49 3.61-.67.49-1.34.99-2 1.5-7.31 1.04-14.17 3.94-21.4 5.36-30.01 8.04-60.08 15.84-89.99 24.3-5.72.66-10.9 3.32-16.52 4.41-6.19 1.11-12.07 3.92-18.49 3.53 1.18-3.47 2.87-6.71 4.75-9.84 4.74-8.91 9.43-17.83 14.31-26.65.46-.88.61-1.81.45-2.78-4.35-3.7-10.11-4.78-15.03-7.46-28.32-13.02-55.94-27.71-82.07-44.75-7.39-5.14-14.47-10.72-21.84-15.9-9.55-7.21-18.39-15.28-26.85-23.73-.76-.78-1.5-1.56-2.23-2.35-9.66-10.49-18.54-21.74-25.89-33.99-13.11-18.77-23.66-39.46-29.86-61.56-.43-2.63-.16-5.35.61-7.89 3.14-12.48 9.45-23.82 15.7-34.96z" fill="#FEFEFE"/><path d="M763.83 181.04c15.74-6.64 32.77-11.92 50.05-10.04 2.73.57 5.7.47 8.21 1.77 1.51 12.68 1.9 25.53.66 38.26-.81 19.94-6.09 39.39-12.77 58.09-2.59 7.52-4.98 15.14-8.26 22.41-2.97 6.86-5.07 14.27-9.26 20.5.98 2.74 2.11 5.44 2.87 8.26-3.12-4.43-4.56-9.72-7.14-14.43-3.34-5.91-6.37-12.01-10.34-17.53-6.29-11.12-13.91-21.39-21.37-31.73-3.65-4.05-6.61-8.67-10.45-12.56-10.09-10.92-19.15-23.05-31.29-31.87 15.02-12.31 31.37-23.12 49.09-31.13zM137.45 365.39c.73.79 1.47 1.57 2.23 2.35l-2.15.8c-1.95 7.97-4.6 15.75-6.36 23.77-3.41 14.05-5.66 28.35-7.29 42.71-.08 1.57.18 3.14.36 4.71-.11-.2-.34-.61-.46-.81-1.37-5.33.27-10.72.85-16.03 2.27-19.56 7.49-38.6 12.82-57.5z" fill="#9D6B36"/><path d="M677.13 456.31c2.46-1.06 5.14-1.26 7.81-1.21-1.47 4.3-4.39 7.85-6.14 12.01-3.63 7.89-8.79 15.07-11.6 23.3-.98.75-1.96 1.5-2.93 2.26.34 1.4.68 3.04 2.29 3.52 7.65 3.08 15.16 6.52 22.49 10.3 8.56 4.36 17.46 8.05 25.78 12.88 34.74 18.43 68.63 39.66 96.38 67.83 10.07 10.67 19.21 22.21 26.93 34.71 12.65 18.11 23.1 37.91 29.53 59.1 2.64 6.93-.26 14.28-2.54 20.89-7.81 19.64-19.66 37.33-31.78 54.52-12.21 16.55-24.98 32.76-39.21 47.62-3.8 3.97-7.55 7.97-11.23 12.05-1.29 1.94-3.27 3.39-5.61 3.71.94-1.21 2.51-2.02 2.83-3.63 2.33-17.15-1.32-34.66-7.97-50.49-8.39-20.11-20.49-38.55-34.56-55.13-5.14-6.25-10.99-11.91-15.79-18.42-4.11-2.78-7.24-6.66-10.81-10.04-2.71-2.58-5.3-5.27-7.55-8.26-5.61-3.58-9.85-8.86-15.29-12.68-12.15-10.33-24.76-20.15-38.16-28.8-6.18-4.9-13.49-8.15-19.49-13.27-1.91-.54-3.83-1.12-5.46-2.26-4.86-3.29-10.36-5.41-15.48-8.23-1.75-1.03-3.78-1.22-5.74-1.44-5.58 10.32-11.05 20.68-16.64 30.98-2.84 4.71-4.67 10.03-8.38 14.18-11.41-30.67-23.85-60.94-35.42-91.56-3.76-8.58-6.85-17.44-10.21-26.17-3.84-8.58-6.57-17.59-10.33-26.19-1.07-3.3-2.07-6.61-2.79-9.99 9.75-1.98 19.06-5.65 28.8-7.54 42.71-11.63 85.48-23.21 128.27-34.55zM434.04 524.76c4.7-1.41 8.82-5.05 14-4.28 2.15 9.53 4.49 19.03 7.4 28.37 1.63 5.42 2.09 11.18 4.41 16.4 2.33 11.35 6.43 22.29 8.34 33.72.85 1.83 1.64 3.7 2.16 5.66 5.48 19.37 10.3 38.91 15.62 58.33 1.73 7.43 4.9 14.6 5.01 22.35-9.55-4.3-18.45-9.94-27.76-14.73-4.31-2.12-8.4-5.02-13.33-5.4-.29 2.3-.56 4.61-.81 6.93-.5.17-1.52.51-2.03.68-2.9 6.94-5.98 13.8-9.65 20.37-1.78 5.01-4.94 9.4-6.44 14.51-5.54 9.01-10.12 18.59-15.57 27.66-3.39 4.83-5.39 10.46-8.8 15.27-3.56 4.89-5.96 10.68-10.7 14.64-.26.84-.51 1.7-.76 2.57-1.18 1.49-2.36 3-3.43 4.58-8.78 12.94-19.02 24.82-29.83 36.1-9.14 8.64-18.52 17.13-29 24.14-14.08 9.32-28.09 18.91-43.52 25.9-9.34 4.22-18.92 8.23-28.96 10.47-6.44.11-12.56-2.3-18.48-4.57-15.38-6.63-29.79-15.3-43.54-24.83-25.48-17.38-49.14-37.39-70.94-59.2 7.53.39 15.11 1.44 22.61.09 13.25-1.41 25.96-5.79 37.94-11.48 18.05-8.47 34.35-20.19 49.67-32.84 3.68-3.16 7.12-6.61 11.17-9.29 5.43-6.62 11.65-12.65 18.23-18.11 5.25-6.59 11.33-12.47 16.77-18.91 12.9-15.3 24.67-31.53 35.7-48.23 7.06-10.08 12.32-21.25 18.07-32.09.94-1.67 1.01-3.61 1.26-5.44-14.17-7.77-28.38-15.47-42.75-22.86.11-.87.31-2.63.42-3.51 2.04-.56 4.08-1.13 6.11-1.71 7.17-3.47 14.76-5.99 22.19-8.83 8.52-3.8 17.29-6.98 26.04-10.19 8.93-3.91 18.27-6.77 27.17-10.76 2.32-.69 4.61-1.49 6.83-2.47 7.48-3.26 15.28-5.71 22.8-8.89 8.87-3.17 17.44-7.14 26.38-10.12z" fill="#FEFEFE"/><path d="M152.06 617.52c3.13 5.35 5.82 10.96 7.65 16.89 4.03 7.52 8.93 14.56 12.6 22.27 2.81 5.66 7.21 10.3 10.22 15.84 10.81 15 22.16 29.64 34.49 43.43 6.8 6.81 13.56 13.68 20.63 20.22-15.32 12.65-31.62 24.37-49.67 32.84-11.98 5.69-24.69 10.07-37.94 11.48-7.5 1.35-15.08.3-22.61-.09l-.73-.04c-2.64-13.94-2.16-28.26-1.03-42.33 1.24-20.45 6.83-40.33 13.98-59.42 4.96-15.7 11.86-30.74 18.85-45.59-1.5-5.36-5.31-9.93-6.44-15.5zM727.34 722.4c3.58-3.82 8.09-6.9 10.26-11.85 14.07 16.58 26.17 35.02 34.56 55.13 6.65 15.83 10.3 33.34 7.97 50.49-.32 1.61-1.89 2.42-2.83 3.63l-.31.34c-10.29.78-20.65 1.63-30.97.66-5.72.1-11.39-.46-16.98-1.65-13.02-1.01-25.73-4.4-38.09-8.49-8.92-2.61-17.71-5.66-26.19-9.46-5.74-1.71-11.17-4.27-16.74-6.45-4.2-1.95-8.21-4.47-12.9-5.07 14.34-6.99 28.26-14.87 41.04-24.44 5.35-4.06 11.36-7.22 16.35-11.76 11.85-10.08 24.53-19.32 34.83-31.08z" fill="#9D6B36"/></g></svg>