<svg xmlns="http://www.w3.org/2000/svg" width="500.979" height="518.391" viewBox="0 0 132.551 137.157"><path style="line-height:normal;font-variant-ligatures:normal;font-variant-position:normal;font-variant-caps:normal;font-variant-numeric:normal;font-variant-alternates:normal;font-variant-east-asian:normal;font-feature-settings:normal;font-variation-settings:normal;text-indent:0;text-align:start;text-decoration-line:none;text-decoration-style:solid;text-decoration-color:#000;text-transform:none;text-orientation:mixed;white-space:normal;shape-padding:0;shape-margin:0;inline-size:0;isolation:auto;mix-blend-mode:normal;solid-color:#000;solid-opacity:1" d="M89.758 5.077a1.332 1.332 0 00-1.164.68 1.332 1.332 0 00.508 1.814l7.53 4.236-8.386 8.3a1.333 1.333 0 00-.39.84l-1.891 23.626a1.332 1.332 0 001.222 1.433 1.332 1.332 0 001.434-1.22l1.852-23.131 9.29-9.196a1.333 1.333 0 00-.283-2.109l-9.072-5.102a1.332 1.332 0 00-.65-.171zM35.955 0a1.333 1.333 0 00-1.299 1.16l-1.324 10.206a1.333 1.333 0 00.397 1.13l11.834 11.432 5.574 20.998a1.333 1.333 0 001.629.945 1.333 1.333 0 00.947-1.628l-5.67-21.356a1.333 1.333 0 00-.363-.617L36.06 11.045l1.239-9.54A1.333 1.333 0 0036.149.01a1.333 1.333 0 00-.194-.01zm-1 102.981a5.811 5.811 0 01-5.812 5.811 5.811 5.811 0 01-5.81-5.81 5.811 5.811 0 015.81-5.812 5.811 5.811 0 015.811 5.811zm74.265.417a5.811 5.811 0 01-5.811 5.81 5.811 5.811 0 01-5.811-5.81 5.811 5.811 0 015.81-5.811 5.811 5.811 0 015.812 5.81zM77.479 89.657v6.306l-3.122 1.508-1.156 4.438h-6.885v3h9.205l1.39-5.34 3.568-1.723v-8.19zm-25.327 0v8.19l3.569 1.722 1.39 5.34h9.205v-3H59.43l-1.155-4.438-3.123-1.508v-6.306zm51.256 4.425c-5.133 0-9.314 4.182-9.314 9.315 0 5.133 4.181 9.316 9.314 9.316s9.317-4.183 9.317-9.316c0-5.133-4.184-9.315-9.317-9.315zm0 2a7.3 7.3 0 017.317 7.315 7.302 7.302 0 01-7.317 7.316 7.3 7.3 0 01-7.314-7.316 7.299 7.299 0 017.314-7.315zm-74.265-2.617c-5.241 0-9.516 4.275-9.516 9.516 0 5.24 4.275 9.515 9.516 9.515 5.24 0 9.515-4.274 9.515-9.515 0-5.241-4.274-9.516-9.515-9.516zm0 2.4a7.099 7.099 0 017.117 7.116 7.099 7.099 0 01-7.117 7.115 7.097 7.097 0 01-7.116-7.115 7.097 7.097 0 017.116-7.115zm-6.702-8.527h13.404c5.552 0 10.02.67 10.02 1.5 0 .831-4.468 1.5-10.02 1.5H22.441c-5.55 0-10.02-.669-10.02-1.5 0-.83 4.47-1.5 10.02-1.5zm-.236-9.446h10.858c5.42 0 9.784.67 9.784 1.5 0 .831-4.363 1.5-9.784 1.5H22.205c-5.42 0-9.784-.669-9.784-1.5 0-.83 4.364-1.5 9.784-1.5zm.236-9.023h13.404c5.552 0 10.02.669 10.02 1.5 0 .83-4.468 1.5-10.02 1.5H22.441c-5.55 0-10.02-.67-10.02-1.5 0-.831 4.47-1.5 10.02-1.5zm87.67 18.486H96.707c-5.552 0-10.02.67-10.02 1.5 0 .831 4.468 1.5 10.02 1.5h13.404c5.55 0 10.02-.669 10.02-1.5 0-.83-4.47-1.5-10.02-1.5zm.236-9.446H99.489c-5.42 0-9.784.67-9.784 1.5 0 .831 4.363 1.5 9.784 1.5h10.858c5.42 0 9.784-.669 9.784-1.5 0-.83-4.364-1.5-9.784-1.5zm-.236-9.023H96.707c-5.552 0-10.02.669-10.02 1.5 0 .83 4.468 1.5 10.02 1.5h13.404c5.55 0 10.02-.67 10.02-1.5 0-.831-4.47-1.5-10.02-1.5zm-77.869-8.774h68.068c10.98 0 19.82.669 19.82 1.5 0 .83-8.84 1.5-19.82 1.5H32.242c-10.98 0-19.82-.67-19.82-1.5 0-.831 8.84-1.5 19.82-1.5zm0-8.563h68.068c10.98 0 19.82.669 19.82 1.5 0 .83-8.84 1.5-19.82 1.5H32.242c-10.98 0-19.82-.67-19.82-1.5 0-.831 8.84-1.5 19.82-1.5zm30.344 14.389c-4.367 0-8.352 1.315-11.328 3.57-2.977 2.255-4.97 5.553-4.97 9.262v1.871c0 3.71 1.993 7.007 4.97 9.262 2.976 2.255 6.96 3.572 11.328 3.572h7.38c4.368 0 8.352-1.317 11.329-3.572 2.976-2.255 4.97-5.553 4.97-9.262V78.77c0-3.71-1.994-7.007-4.97-9.262-2.977-2.255-6.96-3.57-11.328-3.57zm0 4h7.38c3.555 0 6.72 1.098 8.913 2.76 2.192 1.66 3.387 3.78 3.387 6.072v1.871c0 2.292-1.195 4.411-3.387 6.072-2.193 1.661-5.358 2.762-8.912 2.762h-7.381c-3.554 0-6.72-1.1-8.912-2.762-2.193-1.66-3.387-3.78-3.387-6.072V78.77c0-2.293 1.194-4.411 3.387-6.072 2.192-1.662 5.358-2.76 8.912-2.76zM11.848 42.606C5.364 42.606 0 47.688 0 54.03v55.27c0 6.341 5.364 11.423 11.848 11.423h108.857c6.484 0 11.846-5.082 11.846-11.424V54.03c0-6.341-5.362-11.423-11.846-11.423zm0 3.914h108.857c4.473 0 7.932 3.362 7.932 7.51v55.27c0 4.147-3.459 7.509-7.932 7.509H11.848c-4.473 0-7.934-3.362-7.934-7.51V54.03c0-4.147 3.46-7.51 7.934-7.51z" color="#000" font-weight="400" font-family="sans-serif" overflow="visible" opacity=".997" fill="#e5ac2e"/></svg>