<svg xmlns="http://www.w3.org/2000/svg" width="500.979" height="518.391" viewBox="0 0 132.551 137.157"><path style="line-height:normal;font-variant-ligatures:normal;font-variant-position:normal;font-variant-caps:normal;font-variant-numeric:normal;font-variant-alternates:normal;font-variant-east-asian:normal;font-feature-settings:normal;font-variation-settings:normal;text-indent:0;text-align:start;text-decoration-line:none;text-decoration-style:solid;text-decoration-color:#000;text-transform:none;text-orientation:mixed;white-space:normal;shape-padding:0;shape-margin:0;inline-size:0;isolation:auto;mix-blend-mode:normal;solid-color:#000;solid-opacity:1" d="M35.999 0a1.332 1.332 0 00-.044 0 1.332 1.332 0 00-1.299 1.16l-1.324 10.206a1.333 1.333 0 00.397 1.13l11.834 11.432 4.958 18.678H35.816c.13.128.257.25.386.38l3.535 3.534h53.696l3.62-3.62c.1-.1.199-.195.299-.294h-8.556l1.677-20.952 9.29-9.195a1.333 1.333 0 00-.283-2.11l-9.072-5.1a1.332 1.332 0 00-.65-.172 1.332 1.332 0 00-1.164.68 1.332 1.332 0 00.508 1.814l7.53 4.236-8.386 8.3a1.333 1.333 0 00-.39.84l-1.734 21.659H53.278l-5.235-19.719a1.333 1.333 0 00-.363-.617L36.06 11.045l1.239-9.54A1.332 1.332 0 0036.149.01a1.332 1.332 0 00-.15-.01zM11.848 42.606C5.364 42.606 0 47.688 0 54.03v55.27c0 6.341 5.364 11.423 11.848 11.423h7.902a144.032 144.032 0 013.528-3.914h-11.43c-4.473 0-7.934-3.362-7.934-7.51V54.03c0-4.147 3.46-7.51 7.934-7.51H25.57a146.388 146.388 0 01-3.553-3.913h-10.17zm99.314 0a146.914 146.914 0 01-3.56 3.914h13.103c4.473 0 7.932 3.362 7.932 7.51v55.27c0 4.147-3.459 7.509-7.932 7.509h-10.808a144.537 144.537 0 013.532 3.914h7.276c6.484 0 11.846-5.082 11.846-11.424V54.03c0-6.341-5.362-11.423-11.846-11.423h-9.543zm-66.396 8.943l3 3h37.638l3-3H44.765zm-14.274.007c-10.153.066-18.071.707-18.071 1.493 0 .831 8.84 1.5 19.821 1.5h1.243l-2.993-2.993zm72.18.004l-2.988 2.989h.626c10.98 0 19.82-.669 19.82-1.5 0-.77-7.6-1.4-17.458-1.489zm-70.43 8.552c-10.98 0-19.821.669-19.821 1.5 0 .83 8.84 1.5 19.821 1.5h9.807l-3-3h-6.807zm21.087 0l3 3H76.84l3-3H53.33zm40.792 0l-3 3h9.189c10.98 0 19.82-.67 19.82-1.5 0-.831-8.84-1.5-19.82-1.5h-6.19zm-31.535 5.826c-1.091 0-2.158.082-3.191.24l3.76 3.76H70.013l3.67-3.67a20.947 20.947 0 00-3.716-.33h-7.381zm-40.145 2.93c-5.551 0-10.02.67-10.02 1.5 0 .832 4.469 1.501 10.02 1.501h13.404c5.551 0 10.02-.67 10.02-1.5 0-.831-4.469-1.5-10.02-1.5H22.441zm74.266.018c-5.551 0-10.02.669-10.02 1.5 0 .83 4.469 1.5 10.02 1.5h13.404c5.55 0 10.02-.67 10.02-1.5 0-.831-4.47-1.5-10.02-1.5H96.707zm-46.95 1.934c-2.126 2.141-3.47 4.906-3.47 7.95v1.871c0 3.424 1.702 6.494 4.304 8.72l2.84-2.84c-2.036-1.631-3.144-3.674-3.144-5.88V78.77c0-1.877.802-3.637 2.295-5.125l-2.825-2.825zm33.339.317l-2.824 2.823c1.3 1.42 1.994 3.064 1.994 4.81v1.871c0 2.08-.987 4.017-2.808 5.6l2.833 2.832c2.416-2.2 3.975-5.154 3.975-8.432V78.77c0-2.897-1.22-5.54-3.17-7.633zm-60.891 6.755c-5.42 0-9.784.67-9.784 1.5 0 .831 4.364 1.5 9.784 1.5h10.858c5.42 0 9.784-.669 9.784-1.5 0-.83-4.364-1.5-9.784-1.5H22.205zm77.283.017c-5.42 0-9.783.67-9.783 1.5 0 .831 4.363 1.5 9.783 1.5h10.859c5.42 0 9.784-.669 9.784-1.5 0-.83-4.364-1.5-9.784-1.5H99.488zm-77.047 9.43c-5.551 0-10.02.669-10.02 1.5 0 .83 4.469 1.5 10.02 1.5h13.404c5.551 0 10.02-.67 10.02-1.5 0-.831-4.469-1.5-10.02-1.5H22.441zm74.266.016c-5.551 0-10.02.67-10.02 1.5 0 .832 4.469 1.5 10.02 1.5h13.404c5.55 0 10.02-.668 10.02-1.5 0-.83-4.47-1.5-10.02-1.5H96.707zm-31.95 2.12l-3.926 3.926a21.34 21.34 0 001.755.074h7.38c.787 0 1.56-.045 2.318-.128l-3.872-3.872h-3.655zm-35.615 3.99c-5.24 0-9.515 4.275-9.515 9.516 0 4.71 3.454 8.639 7.958 9.386l2.31-2.31a7.097 7.097 0 01-7.868-7.076 7.097 7.097 0 017.115-7.116 7.099 7.099 0 017.079 7.867l2.307-2.308c-.747-4.505-4.675-7.959-9.386-7.959zm74.266.618c-4.359 0-8.03 3.016-9.039 7.069l1.743 1.744a7.296 7.296 0 017.296-6.813 7.3 7.3 0 017.317 7.314 7.3 7.3 0 01-6.814 7.297l1.744 1.743c4.053-1.01 7.07-4.681 7.07-9.04 0-5.133-4.184-9.314-9.317-9.314zm-27.668 2.72l-1.383.668-1.156 4.438H59.43l-1.153-4.438-1.022-.493-2.246 2.246.713.345 1.39 5.34h18.41l1.389-5.34 1.076-.52-2.246-2.246zm-46.653.367a5.811 5.811 0 00-5.755 5.811 5.811 5.811 0 005.811 5.811 5.811 5.811 0 002.662-.645l2.503-2.503a5.811 5.811 0 00.646-2.663 5.811 5.811 0 00-5.81-5.81 5.811 5.811 0 00-.057 0zm74.322.416a5.811 5.811 0 00-5.811 5.812 5.811 5.811 0 00.101 1.084l4.625 4.625a5.811 5.811 0 001.085.102 5.811 5.811 0 005.81-5.811 5.811 5.811 0 00-5.81-5.812zM37.424 116.81l-3.155 3.154c-.259.26-.515.505-.773.76h66.175c-.229-.227-.456-.444-.685-.674l-3.24-3.24H37.424z" color="#000" font-weight="400" font-family="sans-serif" overflow="visible" opacity=".997" fill="#b07b06" fill-opacity=".524"/><g opacity=".997" fill="#b07b06" fill-opacity=".524" color="#000" font-weight="400" font-family="sans-serif"><path style="line-height:normal;font-variant-ligatures:normal;font-variant-position:normal;font-variant-caps:normal;font-variant-numeric:normal;font-variant-alternates:normal;font-variant-east-asian:normal;font-feature-settings:normal;font-variation-settings:normal;text-indent:0;text-align:start;text-decoration-line:none;text-decoration-style:solid;text-decoration-color:#000;text-transform:none;text-orientation:mixed;white-space:normal;shape-padding:0;shape-margin:0;inline-size:0;isolation:auto;mix-blend-mode:normal;solid-color:#000;solid-opacity:1" d="M31.325 47.863l69.923 69.924c11.28 11.28 20.945 19.778 21.67 19.054.724-.725-7.774-10.39-19.054-21.67L33.94 45.248c-11.28-11.28-20.945-19.779-21.67-19.054-.724.724 7.774 10.389 19.055 21.67z" overflow="visible" opacity=".997"/><path style="line-height:normal;font-variant-ligatures:normal;font-variant-position:normal;font-variant-caps:normal;font-variant-numeric:normal;font-variant-alternates:normal;font-variant-east-asian:normal;font-feature-settings:normal;font-variation-settings:normal;text-indent:0;text-align:start;text-decoration-line:none;text-decoration-style:solid;text-decoration-color:#000;text-transform:none;text-orientation:mixed;white-space:normal;shape-padding:0;shape-margin:0;inline-size:0;isolation:auto;mix-blend-mode:normal;solid-color:#000;solid-opacity:1" d="M99.315 45.162l-69.923 69.923c-11.28 11.28-19.779 20.945-19.054 21.67.724.724 10.388-7.774 21.669-19.054l69.923-69.924c11.28-11.28 19.779-20.945 19.055-21.67-.725-.724-10.39 7.774-21.67 19.055z" overflow="visible" opacity=".997"/></g></svg>